HIERARCHY
ROOT Hips
{
	OFFSET -0.001795 -0.223333 0.028219
	CHANNELS 6 Xposition Yposition Zposition Zrotation Yrotation Xrotation 
	JOINT LeftUpLeg
	{
		OFFSET 0.069520 -0.091406 -0.006815
		CHANNELS 3 Zrotation Yrotation Xrotation
		JOINT LeftLeg
		{
			OFFSET 0.034277 -0.375199 -0.004496
			CHANNELS 3 Zrotation Yrotation Xrotation
			JOINT LeftFoot
			{
				OFFSET -0.013596 -0.397961 -0.043693
				CHANNELS 3 Zrotation Yrotation Xrotation
				JOINT LeftToe
				{
					OFFSET 0.026358 -0.055791 0.119288
					CHANNELS 3 Zrotation Yrotation Xrotation
					End Site
					{
						OFFSET 0.000000 0.000000 0.000000
					}
				}
			}
		}
	}
	JOINT RightUpLeg
	{
		OFFSET -0.067670 -0.090522 -0.004320
		CHANNELS 3 Zrotation Yrotation Xrotation
		JOINT RightLeg
		{
			OFFSET -0.038290 -0.382569 -0.008850
			CHANNELS 3 Zrotation Yrotation Xrotation
			JOINT RightFoot
			{
				OFFSET 0.015774 -0.398415 -0.042312
				CHANNELS 3 Zrotation Yrotation Xrotation
				JOINT RightToe
				{
					OFFSET -0.025372 -0.048144 0.123348
					CHANNELS 3 Zrotation Yrotation Xrotation
					End Site
					{
						OFFSET 0.000000 0.000000 0.000000
					}
				}
			}
		}
	}
	JOINT Spine
	{
		OFFSET -0.002533 0.108963 -0.026696
		CHANNELS 3 Zrotation Yrotation Xrotation
		JOINT Spine1
		{
			OFFSET 0.005487 0.135180 0.001092
			CHANNELS 3 Zrotation Yrotation Xrotation
			JOINT Spine2
			{
				OFFSET 0.001457 0.052922 0.025425
				CHANNELS 3 Zrotation Yrotation Xrotation
				JOINT Neck
				{
					OFFSET -0.002778 0.213870 -0.042857
					CHANNELS 3 Zrotation Yrotation Xrotation
					JOINT Head
					{
						OFFSET 0.005152 0.064970 0.051349
						CHANNELS 3 Zrotation Yrotation Xrotation
						End Site
						{
							OFFSET 0.000000 0.000000 0.000000
						}
					}
				}
				JOINT LeftShoulder
				{
					OFFSET 0.078845 0.121749 -0.034090
					CHANNELS 3 Zrotation Yrotation Xrotation
					JOINT LeftArm
					{
						OFFSET 0.090977 0.030469 -0.008868
						CHANNELS 3 Zrotation Yrotation Xrotation
						JOINT LeftForeArm
						{
							OFFSET 0.259612 -0.012772 -0.027456
							CHANNELS 3 Zrotation Yrotation Xrotation
							JOINT LeftHand
							{
								OFFSET 0.249234 0.008986 -0.001171
								CHANNELS 3 Zrotation Yrotation Xrotation
								End Site
								{
									OFFSET 0.000000 0.000000 0.000000
								}
							}
						}
					}
				}
				JOINT RightShoulder
				{
					OFFSET -0.081759 0.118833 -0.038615
					CHANNELS 3 Zrotation Yrotation Xrotation
					JOINT RightArm
					{
						OFFSET -0.096012 0.032551 -0.009143
						CHANNELS 3 Zrotation Yrotation Xrotation
						JOINT RightForeArm
						{
							OFFSET -0.253742 -0.013329 -0.021401
							CHANNELS 3 Zrotation Yrotation Xrotation
							JOINT RightHand
							{
								OFFSET -0.255298 0.007772 -0.005559
								CHANNELS 3 Zrotation Yrotation Xrotation
								End Site
								{
									OFFSET 0.000000 0.000000 0.000000
								}
							}
						}
					}
				}
			}
		}
	}
}
MOTION
Frames: 5
Frame Time: 0.050000
0.127475 0.828948 0.186524 -36.037179 -81.117715 43.900585 13.740823 16.100984 -28.765941 8.705302 22.316850 60.165782 0.383366 1.114411 -21.921004 0.000000 0.000000 0.000000 -33.283797 15.283256 -52.902333 30.878957 3.285601 33.842403 -7.400742 -27.738055 25.098678 0.000000 0.000000 0.000000 10.748347 9.912763 45.324950 17.960045 1.952456 -32.555911 -19.271457 -31.288020 31.177995 0.403971 -7.088737 -27.095057 0.000000 0.000000 0.000000 -28.955473 -9.301742 29.872373 -18.996106 -48.668548 -0.980871 15.312932 -56.771991 -5.125069 0.000000 0.000000 0.000000 20.119010 18.063717 -19.913517 38.875698 -9.021962 -1.182807 179.795701 63.525941 162.517857 0.000000 0.000000 0.000000 
0.125382 0.840919 0.190717 -43.711941 -82.457128 51.016999 13.316991 14.645590 -26.406087 5.397953 23.018165 54.374365 2.448037 8.741881 -17.901410 0.000000 0.000000 0.000000 -29.636048 15.216387 -50.502619 25.751645 4.386007 33.552893 -4.168512 -23.443068 23.100111 0.000000 0.000000 0.000000 9.622358 9.643316 43.319264 18.091481 2.064399 -31.764261 -20.183559 -31.451566 32.658182 -0.139377 -7.086108 -26.816314 0.000000 0.000000 0.000000 -28.694245 -9.576442 31.021030 -17.061399 -49.926895 -1.386368 21.304241 -56.899958 -8.545965 0.000000 0.000000 0.000000 20.477654 17.427137 -22.453736 38.747966 -15.505317 -3.051136 172.799895 67.286621 153.374367 0.000000 0.000000 0.000000 
0.122687 0.851480 0.194036 -50.462204 -83.277261 57.134370 13.063869 13.193922 -23.998033 2.471704 22.908514 49.057759 4.593039 14.375118 -13.863249 0.000000 0.000000 0.000000 -26.434807 14.785358 -48.031563 21.572865 5.078615 32.810457 -1.914175 -20.265504 22.066676 0.000000 0.000000 0.000000 8.498096 9.111912 41.189143 17.698909 1.707715 -30.358446 -20.363876 -31.590717 33.074626 -1.345474 -6.590536 -26.398877 0.000000 0.000000 0.000000 -28.237865 -8.642506 31.107859 -17.187851 -51.055387 -1.113762 23.775265 -60.083415 -9.955532 0.000000 0.000000 0.000000 19.011819 15.876382 -23.357219 39.918823 -20.700869 -5.541067 164.429507 72.022883 142.065473 0.000000 0.000000 0.000000 
0.119939 0.860715 0.197173 -59.254030 -84.271423 65.306376 12.297713 11.600682 -21.787798 0.388903 22.297226 44.329073 7.193260 19.458103 -9.283031 0.000000 0.000000 0.000000 -23.575792 14.109747 -45.253672 17.059735 5.616300 31.658575 0.751346 -15.617175 19.831870 0.000000 0.000000 0.000000 7.893722 8.581845 39.288521 16.450962 1.331999 -29.287936 -20.137744 -31.160614 34.079457 -1.871660 -6.425109 -25.808517 0.000000 0.000000 0.000000 -27.563998 -8.585733 31.695309 -17.044797 -52.768452 -0.772890 27.174778 -62.797256 -12.097705 0.000000 0.000000 0.000000 17.907770 13.879236 -24.838150 39.473151 -25.144794 -7.449483 148.839149 76.346738 125.002095 0.000000 0.000000 0.000000 
0.117924 0.867972 0.200713 -60.985918 -84.755017 66.541295 11.495971 10.134478 -20.037315 -0.958888 21.878759 41.478863 8.266025 21.536667 -7.383352 0.000000 0.000000 0.000000 -21.796675 13.163786 -42.601600 13.859258 5.698234 30.208262 2.257035 -12.344972 18.210667 0.000000 0.000000 0.000000 7.365831 7.867317 37.410394 16.013467 0.988312 -28.069312 -20.169045 -30.477159 34.136929 -2.437460 -6.210606 -25.620797 0.000000 0.000000 0.000000 -27.275076 -8.324550 31.802682 -18.262830 -54.282336 -0.009525 26.947945 -66.605742 -12.089678 0.000000 0.000000 0.000000 16.314403 12.066012 -24.597411 39.395612 -28.106854 -9.302752 129.769341 80.226289 106.008265 0.000000 0.000000 0.000000 
